Encode_Cond_Bd.ufo
<glyph name="ampersand" format="1">
  <advance width="663"/>
  <unicode hex="0026"/>
  <outline>
    <contour>
      <point x="663" y="134" type="line"/>
      <point x="285" y="375" type="line" smooth="yes"/>
      <point x="271" y="380"/>
      <point x="261" y="390"/>
      <point x="261" y="406" type="curve" smooth="yes"/>
      <point x="261" y="431"/>
      <point x="285" y="449"/>
      <point x="364" y="449" type="curve" smooth="yes"/>
      <point x="393" y="449"/>
      <point x="432" y="445"/>
      <point x="457" y="440" type="curve"/>
      <point x="457" y="593" type="line"/>
      <point x="424" y="599"/>
      <point x="388" y="603"/>
      <point x="344" y="603" type="curve" smooth="yes"/>
      <point x="154" y="603"/>
      <point x="65" y="526"/>
      <point x="65" y="405" type="curve" smooth="yes"/>
      <point x="65" y="344"/>
      <point x="92" y="290"/>
      <point x="183" y="234" type="curve" smooth="yes"/>
      <point x="561" y="-8" type="line"/>
    </contour>
    <contour>
      <point x="566" y="283" type="curve" smooth="yes"/>
      <point x="566" y="311"/>
      <point x="562" y="345"/>
      <point x="555" y="377" type="curve"/>
      <point x="400" y="377" type="line"/>
      <point x="407" y="345"/>
      <point x="411" y="310"/>
      <point x="411" y="281" type="curve" smooth="yes"/>
      <point x="411" y="162"/>
      <point x="355" y="127"/>
      <point x="291" y="127" type="curve" smooth="yes"/>
      <point x="242" y="127"/>
      <point x="212" y="148"/>
      <point x="212" y="186" type="curve" smooth="yes"/>
      <point x="212" y="211"/>
      <point x="221" y="227"/>
      <point x="232" y="243" type="curve"/>
      <point x="132" y="313" type="line"/>
      <point x="73" y="298"/>
      <point x="19" y="243"/>
      <point x="19" y="163" type="curve" smooth="yes"/>
      <point x="19" y="59"/>
      <point x="102" y="-7"/>
      <point x="267" y="-7" type="curve" smooth="yes"/>
      <point x="449" y="-7"/>
      <point x="566" y="91"/>
    </contour>
  </outline>
</glyph>
<glyph name="A" format="1">
  <advance width="570"/>
  <unicode hex="0041"/>
  <outline>
    <contour>
      <point x="182" y="0" type="line"/>
      <point x="291" y="514" type="line"/>
      <point x="275" y="514" type="line"/>
      <point x="385" y="0" type="line"/>
      <point x="576" y="0" type="line"/>
      <point x="432" y="595" type="line"/>
      <point x="138" y="595" type="line"/>
      <point x="-6" y="0" type="line"/>
    </contour>
    <contour>
      <point x="464" y="123" type="line"/>
      <point x="428" y="278" type="line"/>
      <point x="140" y="278" type="line"/>
      <point x="105" y="123" type="line"/>
    </contour>
    <contour>
      <point x="285" y="611" type="move" name="top"/>
    </contour>
    <contour>
      <point x="576" y="0" type="move" name="ogonek"/>
    </contour>
    <contour>
      <point x="285" y="0" type="move" name="bottom"/>
    </contour>
  </outline>
</glyph>
<glyph name="B" format="1">
  <advance width="544"/>
  <unicode hex="0042"/>
  <outline>
    <contour>
      <point x="536" y="170" type="curve" smooth="yes"/>
      <point x="536" y="257"/>
      <point x="483" y="296"/>
      <point x="422" y="308" type="curve"/>
      <point x="422" y="304" type="line"/>
      <point x="476" y="318"/>
      <point x="519" y="367"/>
      <point x="519" y="432" type="curve" smooth="yes"/>
      <point x="519" y="552"/>
      <point x="429" y="604"/>
      <point x="241" y="604" type="curve" smooth="yes"/>
      <point x="175" y="604"/>
      <point x="93" y="595"/>
      <point x="31" y="582" type="curve"/>
      <point x="31" y="6" type="line"/>
      <point x="86" y="-2"/>
      <point x="166" y="-9"/>
      <point x="218" y="-9" type="curve" smooth="yes"/>
      <point x="441" y="-9"/>
      <point x="536" y="53"/>
    </contour>
    <contour>
      <point x="223" y="135" type="curve"/>
      <point x="223" y="458" type="line"/>
      <point x="242" y="461"/>
      <point x="257" y="462"/>
      <point x="275" y="462" type="curve" smooth="yes"/>
      <point x="318" y="462"/>
      <point x="335" y="449"/>
      <point x="335" y="419" type="curve" smooth="yes"/>
      <point x="335" y="387"/>
      <point x="318" y="377"/>
      <point x="268" y="377" type="curve" smooth="yes"/>
      <point x="208" y="377" type="line"/>
      <point x="208" y="229" type="line"/>
      <point x="278" y="229" type="line" smooth="yes"/>
      <point x="330" y="229"/>
      <point x="353" y="217"/>
      <point x="353" y="182" type="curve" smooth="yes"/>
      <point x="353" y="146"/>
      <point x="333" y="132"/>
      <point x="275" y="132" type="curve" smooth="yes"/>
      <point x="259" y="132"/>
      <point x="246" y="133"/>
    </contour>
    <contour>
      <point x="267" y="595" type="move" name="top"/>
    </contour>
    <contour>
      <point x="267" y="0" type="move" name="bottom"/>
    </contour>
  </outline>
</glyph>
<glyph name="C" format="1">
  <advance width="486"/>
  <unicode hex="0043"/>
  <outline>
    <contour>
      <point x="469" y="11" type="curve"/>
      <point x="469" y="165" type="line"/>
      <point x="432" y="154"/>
      <point x="396" y="147"/>
      <point x="370" y="147" type="curve" smooth="yes"/>
      <point x="267" y="147"/>
      <point x="223" y="183"/>
      <point x="223" y="297" type="curve" smooth="yes"/>
      <point x="223" y="408"/>
      <point x="271" y="448"/>
      <point x="370" y="448" type="curve" smooth="yes"/>
      <point x="405" y="448"/>
      <point x="439" y="443"/>
      <point x="469" y="438" type="curve"/>
      <point x="469" y="592" type="line"/>
      <point x="434" y="599"/>
      <point x="392" y="603"/>
      <point x="350" y="603" type="curve" smooth="yes"/>
      <point x="143" y="603"/>
      <point x="19" y="500"/>
      <point x="19" y="296" type="curve" smooth="yes"/>
      <point x="19" y="82"/>
      <point x="137" y="-8"/>
      <point x="340" y="-8" type="curve" smooth="yes"/>
      <point x="385" y="-8"/>
      <point x="437" y="-1"/>
    </contour>
    <contour>
      <point x="302" y="611" type="move" name="top"/>
    </contour>
    <contour>
      <point x="301" y="0" type="move" name="bottom"/>
    </contour>
  </outline>
</glyph>
<glyph name="D" format="1">
  <advance width="584"/>
  <unicode hex="0044"/>
  <outline>
    <contour>
      <point x="564" y="297" type="curve" smooth="yes"/>
      <point x="564" y="509"/>
      <point x="454" y="604"/>
      <point x="232" y="604" type="curve" smooth="yes"/>
      <point x="160" y="604"/>
      <point x="93" y="595"/>
      <point x="31" y="581" type="curve"/>
      <point x="31" y="1" type="line"/>
      <point x="84" y="-5"/>
      <point x="149" y="-9"/>
      <point x="206" y="-9" type="curve" smooth="yes"/>
      <point x="448" y="-9"/>
      <point x="564" y="86"/>
    </contour>
    <contour>
      <point x="226" y="144" type="curve"/>
      <point x="226" y="448" type="line"/>
      <point x="232" y="450"/>
      <point x="248" y="451"/>
      <point x="257" y="451" type="curve" smooth="yes"/>
      <point x="320" y="451"/>
      <point x="366" y="421"/>
      <point x="366" y="297" type="curve" smooth="yes"/>
      <point x="366" y="176"/>
      <point x="325" y="144"/>
      <point x="262" y="144" type="curve" smooth="yes"/>
      <point x="256" y="144"/>
      <point x="243" y="144"/>
    </contour>
    <contour>
      <point x="283" y="0" type="move" name="bottom"/>
    </contour>
    <contour>
      <point x="31" y="306" type="move" name="stroke"/>
    </contour>
    <contour>
      <point x="273" y="611" type="move" name="top"/>
    </contour>
    <contour>
      <point x="285" y="297" type="move" name="center"/>
    </contour>
  </outline>
</glyph>
<glyph name="E" format="1">
  <advance width="497"/>
  <unicode hex="0045"/>
  <outline>
    <contour>
      <point x="470" y="0" type="line"/>
      <point x="470" y="159" type="line"/>
      <point x="223" y="159" type="line"/>
      <point x="223" y="436" type="line"/>
      <point x="466" y="436" type="line"/>
      <point x="466" y="595" type="line"/>
      <point x="31" y="595" type="line"/>
      <point x="31" y="0" type="line"/>
    </contour>
    <contour>
      <point x="421" y="225" type="line"/>
      <point x="421" y="381" type="line"/>
      <point x="168" y="381" type="line"/>
      <point x="168" y="225" type="line"/>
    </contour>
    <contour>
      <point x="436" y="0" type="move" name="ogonek"/>
    </contour>
    <contour>
      <point x="258" y="611" type="move" name="top"/>
    </contour>
    <contour>
      <point x="15" y="595" type="move" name="topleft"/>
    </contour>
    <contour>
      <point x="258" y="0" type="move" name="bottom"/>
    </contour>
  </outline>
</glyph>
<glyph name="F" format="1">
  <advance width="471"/>
  <unicode hex="0046"/>
  <outline>
    <contour>
      <point x="226" y="0" type="line"/>
      <point x="226" y="432" type="line"/>
      <point x="467" y="432" type="line"/>
      <point x="467" y="595" type="line"/>
      <point x="31" y="595" type="line"/>
      <point x="31" y="0" type="line"/>
    </contour>
    <contour>
      <point x="424" y="198" type="line"/>
      <point x="424" y="361" type="line"/>
      <point x="168" y="361" type="line"/>
      <point x="168" y="198" type="line"/>
    </contour>
  </outline>
</glyph>
<glyph name="G" format="1">
  <advance width="547"/>
  <unicode hex="0047"/>
  <outline>
    <contour>
      <point x="529" y="4" type="curve"/>
      <point x="529" y="289" type="line"/>
      <point x="350" y="289" type="line"/>
      <point x="350" y="106" type="line"/>
      <point x="408" y="148" type="line"/>
      <point x="393" y="147"/>
      <point x="370" y="145"/>
      <point x="350" y="145" type="curve" smooth="yes"/>
      <point x="269" y="145"/>
      <point x="221" y="186"/>
      <point x="221" y="295" type="curve" smooth="yes"/>
      <point x="221" y="408"/>
      <point x="270" y="448"/>
      <point x="401" y="448" type="curve" smooth="yes"/>
      <point x="440" y="448"/>
      <point x="474" y="442"/>
      <point x="511" y="435" type="curve"/>
      <point x="511" y="589" type="line"/>
      <point x="471" y="599"/>
      <point x="433" y="603"/>
      <point x="377" y="603" type="curve" smooth="yes"/>
      <point x="145" y="603"/>
      <point x="19" y="500"/>
      <point x="19" y="298" type="curve" smooth="yes"/>
      <point x="19" y="91"/>
      <point x="139" y="-9"/>
      <point x="373" y="-9" type="curve" smooth="yes"/>
      <point x="421" y="-9"/>
      <point x="479" y="-4"/>
    </contour>
    <contour>
      <point x="332" y="611" type="move" name="top"/>
    </contour>
    <contour>
      <point x="332" y="0" type="move" name="bottom"/>
    </contour>
  </outline>
</glyph>
<glyph name="H" format="1">
  <advance width="596"/>
  <unicode hex="0048"/>
  <outline>
    <contour>
      <point x="226" y="0" type="line"/>
      <point x="226" y="219" type="line"/>
      <point x="370" y="219" type="line"/>
      <point x="370" y="0" type="line"/>
      <point x="565" y="0" type="line"/>
      <point x="565" y="595" type="line"/>
      <point x="370" y="595" type="line"/>
      <point x="370" y="387" type="line"/>
      <point x="226" y="387" type="line"/>
      <point x="226" y="595" type="line"/>
      <point x="31" y="595" type="line"/>
      <point x="31" y="0" type="line"/>
    </contour>
    <contour>
      <point x="298" y="0" type="move" name="bottom"/>
    </contour>
    <contour>
      <point x="298" y="611" type="move" name="top"/>
    </contour>
    <contour>
      <point x="11" y="595" type="move" name="topleft"/>
    </contour>
    <contour>
      <point x="298" y="487" type="move" name="center"/>
    </contour>
  </outline>
</glyph>
<glyph name="I" format="1">
  <advance width="257"/>
  <unicode hex="0049"/>
  <outline>
    <contour>
      <point x="226" y="0" type="line"/>
      <point x="226" y="595" type="line"/>
      <point x="31" y="595" type="line"/>
      <point x="31" y="0" type="line"/>
    </contour>
    <contour>
      <point x="129" y="611" type="move" name="top"/>
    </contour>
    <contour>
      <point x="225" y="0" type="move" name="ogonek"/>
    </contour>
    <contour>
      <point x="129" y="0" type="move" name="bottom"/>
    </contour>
  </outline>
</glyph>
<glyph name="J" format="1">
  <advance width="257"/>
  <unicode hex="004A"/>
  <outline>
    <contour>
      <point x="226" y="135" type="curve"/>
      <point x="226" y="595" type="line"/>
      <point x="31" y="595" type="line"/>
      <point x="31" y="125" type="line" smooth="yes"/>
      <point x="31" y="46"/>
      <point x="20" y="-3"/>
      <point x="-25" y="-63" type="curve"/>
      <point x="102" y="-142" type="line"/>
      <point x="195" y="-53"/>
      <point x="227" y="33"/>
    </contour>
    <contour>
      <point x="129" y="611" type="move" name="top"/>
    </contour>
    <contour>
      <point x="223" y="0" type="move" name="bottom"/>
    </contour>
  </outline>
</glyph>
<glyph name="K" format="1">
  <advance width="546"/>
  <unicode hex="004B"/>
  <outline>
    <contour>
      <point x="578" y="0" type="line"/>
      <point x="394" y="332" type="line"/>
      <point x="392" y="280" type="line"/>
      <point x="563" y="595" type="line"/>
      <point x="362" y="595" type="line"/>
      <point x="203" y="301" type="line"/>
      <point x="371" y="0" type="line"/>
    </contour>
    <contour>
      <point x="226" y="0" type="line"/>
      <point x="226" y="595" type="line"/>
      <point x="31" y="595" type="line"/>
      <point x="31" y="0" type="line"/>
    </contour>
    <contour>
      <point x="271" y="219" type="line"/>
      <point x="271" y="387" type="line"/>
      <point x="201" y="387" type="line"/>
      <point x="201" y="219" type="line"/>
    </contour>
    <contour>
      <point x="277" y="595" type="move" name="top"/>
    </contour>
    <contour>
      <point x="284" y="0" type="move" name="bottom"/>
    </contour>
  </outline>
</glyph>
<glyph name="L" format="1">
  <advance width="455"/>
  <unicode hex="004C"/>
  <outline>
    <contour>
      <point x="453" y="0" type="line"/>
      <point x="453" y="163" type="line"/>
      <point x="226" y="163" type="line"/>
      <point x="226" y="595" type="line"/>
      <point x="31" y="595" type="line"/>
      <point x="31" y="0" type="line"/>
    </contour>
    <contour>
      <point x="133" y="611" type="move" name="top"/>
    </contour>
    <contour>
      <point x="353" y="370" type="move" name="periodcentered"/>
    </contour>
    <contour>
      <point x="133" y="350" type="move" name="slash"/>
    </contour>
    <contour>
      <point x="297" y="595" type="move" name="caronalt"/>
    </contour>
    <contour>
      <point x="242" y="0" type="move" name="bottom"/>
    </contour>
  </outline>
</glyph>
<glyph name="M" format="1">
  <advance width="760"/>
  <unicode hex="004D"/>
  <outline>
    <contour>
      <point x="215" y="0" type="line"/>
      <point x="215" y="409" type="line"/>
      <point x="178" y="409" type="line"/>
      <point x="305" y="90" type="line"/>
      <point x="455" y="90" type="line"/>
      <point x="575" y="409" type="line"/>
      <point x="545" y="409" type="line"/>
      <point x="545" y="0" type="line"/>
      <point x="727" y="0" type="line"/>
      <point x="727" y="595" type="line"/>
      <point x="486" y="595" type="line"/>
      <point x="377" y="288" type="line"/>
      <point x="390" y="288" type="line"/>
      <point x="274" y="595" type="line"/>
      <point x="33" y="595" type="line"/>
      <point x="33" y="0" type="line"/>
    </contour>
    <contour>
      <point x="393" y="595" type="move" name="top"/>
    </contour>
    <contour>
      <point x="393" y="0" type="move" name="bottom"/>
    </contour>
  </outline>
</glyph>
<glyph name="N" format="1">
  <advance width="601"/>
  <unicode hex="004E"/>
  <outline>
    <contour>
      <point x="213" y="0" type="line"/>
      <point x="213" y="328" type="line"/>
      <point x="186" y="328" type="line"/>
      <point x="376" y="0" type="line"/>
      <point x="569" y="0" type="line"/>
      <point x="569" y="595" type="line"/>
      <point x="388" y="595" type="line"/>
      <point x="388" y="267" type="line"/>
      <point x="415" y="267" type="line"/>
      <point x="224" y="595" type="line"/>
      <point x="31" y="595" type="line"/>
      <point x="31" y="0" type="line"/>
    </contour>
    <contour>
      <point x="300" y="611" type="move" name="top"/>
    </contour>
    <contour>
      <point x="300" y="0" type="move" name="bottom"/>
    </contour>
  </outline>
</glyph>
<glyph name="O" format="1">
  <advance width="616"/>
  <unicode hex="004F"/>
  <outline>
    <contour>
      <point x="597" y="297" type="curve" smooth="yes"/>
      <point x="597" y="511"/>
      <point x="477" y="603"/>
      <point x="308" y="603" type="curve" smooth="yes"/>
      <point x="139" y="603"/>
      <point x="19" y="511"/>
      <point x="19" y="297" type="curve" smooth="yes"/>
      <point x="19" y="84"/>
      <point x="139" y="-8"/>
      <point x="308" y="-8" type="curve" smooth="yes"/>
      <point x="477" y="-8"/>
      <point x="597" y="84"/>
    </contour>
    <contour>
      <point x="218" y="301" type="curve" smooth="yes"/>
      <point x="218" y="411"/>
      <point x="248" y="451"/>
      <point x="308" y="451" type="curve" smooth="yes"/>
      <point x="368" y="451"/>
      <point x="398" y="411"/>
      <point x="398" y="294" type="curve" smooth="yes"/>
      <point x="398" y="184"/>
      <point x="368" y="144"/>
      <point x="308" y="144" type="curve" smooth="yes"/>
      <point x="248" y="144"/>
      <point x="218" y="184"/>
    </contour>
    <contour>
      <point x="308" y="0" type="move" name="bottom"/>
    </contour>
    <contour>
      <point x="394" y="0" type="move" name="ogonek"/>
    </contour>
    <contour>
      <point x="308" y="611" type="move" name="top"/>
    </contour>
    <contour>
      <point x="390" y="595" type="move" name="topright"/>
    </contour>
    <contour>
      <point x="18" y="595" type="move" name="topleft"/>
    </contour>
    <contour>
      <point x="308" y="297" type="move" name="center"/>
    </contour>
  </outline>
</glyph>
<glyph name="P" format="1">
  <advance width="534"/>
  <unicode hex="0050"/>
  <outline>
    <contour>
      <point x="226" y="0" type="line"/>
      <point x="226" y="148" type="line"/>
      <point x="239" y="149"/>
      <point x="245" y="148"/>
      <point x="259" y="148" type="curve" smooth="yes"/>
      <point x="422" y="148"/>
      <point x="518" y="226"/>
      <point x="518" y="375" type="curve" smooth="yes"/>
      <point x="518" y="534"/>
      <point x="422" y="604"/>
      <point x="233" y="604" type="curve" smooth="yes"/>
      <point x="160" y="604"/>
      <point x="93" y="595"/>
      <point x="31" y="581" type="curve"/>
      <point x="31" y="0" type="line"/>
    </contour>
    <contour>
      <point x="226" y="297" type="curve"/>
      <point x="226" y="454" type="line"/>
      <point x="233" y="456"/>
      <point x="239" y="456"/>
      <point x="253" y="456" type="curve" smooth="yes"/>
      <point x="305" y="456"/>
      <point x="330" y="432"/>
      <point x="330" y="374" type="curve" smooth="yes"/>
      <point x="330" y="314"/>
      <point x="306" y="295"/>
      <point x="261" y="295" type="curve" smooth="yes"/>
      <point x="246" y="295"/>
      <point x="236" y="296"/>
    </contour>
  </outline>
</glyph>
<glyph name="Q" format="1">
  <advance width="616"/>
  <unicode hex="0051"/>
  <outline>
    <contour>
      <point x="586" y="-8" type="line"/>
      <point x="516" y="2"/>
      <point x="449" y="20"/>
      <point x="334" y="61" type="curve"/>
      <point x="267" y="17" type="line"/>
      <point x="475" y="-11"/>
      <point x="597" y="92"/>
      <point x="597" y="297" type="curve" smooth="yes"/>
      <point x="597" y="511"/>
      <point x="477" y="603"/>
      <point x="308" y="603" type="curve" smooth="yes"/>
      <point x="139" y="603"/>
      <point x="19" y="511"/>
      <point x="19" y="297" type="curve" smooth="yes"/>
      <point x="19" y="80"/>
      <point x="149" y="-80"/>
      <point x="549" y="-157" type="curve"/>
    </contour>
    <contour>
      <point x="218" y="301" type="curve" smooth="yes"/>
      <point x="218" y="411"/>
      <point x="248" y="451"/>
      <point x="308" y="451" type="curve" smooth="yes"/>
      <point x="368" y="451"/>
      <point x="398" y="411"/>
      <point x="398" y="294" type="curve" smooth="yes"/>
      <point x="398" y="184"/>
      <point x="368" y="144"/>
      <point x="308" y="144" type="curve" smooth="yes"/>
      <point x="248" y="144"/>
      <point x="218" y="184"/>
    </contour>
  </outline>
</glyph>
<glyph name="R" format="1">
  <advance width="557"/>
  <unicode hex="0052"/>
  <outline>
    <contour>
      <point x="223" y="0" type="line"/>
      <point x="223" y="190" type="line"/>
      <point x="237" y="190"/>
      <point x="248" y="189"/>
      <point x="265" y="189" type="curve" smooth="yes"/>
      <point x="410" y="189"/>
      <point x="516" y="261"/>
      <point x="516" y="395" type="curve" smooth="yes"/>
      <point x="516" y="536"/>
      <point x="423" y="604"/>
      <point x="235" y="604" type="curve" smooth="yes"/>
      <point x="160" y="604"/>
      <point x="93" y="595"/>
      <point x="31" y="581" type="curve"/>
      <point x="31" y="0" type="line"/>
    </contour>
    <contour>
      <point x="561" y="0" type="line"/>
      <point x="393" y="268" type="line"/>
      <point x="193" y="268" type="line"/>
      <point x="354" y="0" type="line"/>
    </contour>
    <contour>
      <point x="223" y="335" type="curve"/>
      <point x="223" y="459" type="line"/>
      <point x="233" y="461"/>
      <point x="245" y="462"/>
      <point x="264" y="462" type="curve" smooth="yes"/>
      <point x="303" y="462"/>
      <point x="333" y="442"/>
      <point x="333" y="395" type="curve" smooth="yes"/>
      <point x="333" y="347"/>
      <point x="305" y="333"/>
      <point x="265" y="333" type="curve" smooth="yes"/>
      <point x="246" y="333"/>
      <point x="236" y="333"/>
    </contour>
    <contour>
      <point x="274" y="611" type="move" name="top"/>
    </contour>
    <contour>
      <point x="299" y="0" type="move" name="bottom"/>
    </contour>
  </outline>
</glyph>
<glyph name="S" format="1">
  <advance width="464"/>
  <unicode hex="0053"/>
  <outline>
    <contour>
      <point x="460" y="190" type="curve" smooth="yes"/>
      <point x="460" y="290"/>
      <point x="397" y="345"/>
      <point x="295" y="373" type="curve" smooth="yes"/>
      <point x="210" y="396"/>
      <point x="200" y="404"/>
      <point x="200" y="418" type="curve" smooth="yes"/>
      <point x="200" y="431"/>
      <point x="217" y="449"/>
      <point x="307" y="449" type="curve" smooth="yes"/>
      <point x="342" y="449"/>
      <point x="389" y="444"/>
      <point x="422" y="437" type="curve"/>
      <point x="422" y="590" type="line"/>
      <point x="385" y="597"/>
      <point x="337" y="603"/>
      <point x="287" y="603" type="curve" smooth="yes"/>
      <point x="93" y="603"/>
      <point x="4" y="527"/>
      <point x="4" y="404" type="curve" smooth="yes"/>
      <point x="4" y="308"/>
      <point x="69" y="245"/>
      <point x="157" y="223" type="curve" smooth="yes"/>
      <point x="250" y="200"/>
      <point x="264" y="189"/>
      <point x="264" y="173" type="curve" smooth="yes"/>
      <point x="264" y="159"/>
      <point x="247" y="146"/>
      <point x="186" y="146" type="curve" smooth="yes"/>
      <point x="134" y="146"/>
      <point x="74" y="156"/>
      <point x="27" y="169" type="curve"/>
      <point x="27" y="16" type="line"/>
      <point x="74" y="0"/>
      <point x="143" y="-8"/>
      <point x="192" y="-8" type="curve" smooth="yes"/>
      <point x="363" y="-8"/>
      <point x="460" y="70"/>
    </contour>
    <contour>
      <point x="237" y="611" type="move" name="top"/>
    </contour>
    <contour>
      <point x="237" y="0" type="move" name="bottom"/>
    </contour>
  </outline>
</glyph>
<glyph name="T" format="1">
  <advance width="524"/>
  <unicode hex="0054"/>
  <outline>
    <contour>
      <point x="360" y="0" type="line"/>
      <point x="360" y="432" type="line"/>
      <point x="523" y="432" type="line"/>
      <point x="523" y="595" type="line"/>
      <point x="1" y="595" type="line"/>
      <point x="1" y="432" type="line"/>
      <point x="164" y="432" type="line"/>
      <point x="164" y="0" type="line"/>
    </contour>
    <contour>
      <point x="263" y="611" type="move" name="top"/>
    </contour>
    <contour>
      <point x="263" y="273" type="move" name="center"/>
    </contour>
    <contour>
      <point x="263" y="0" type="move" name="bottom"/>
    </contour>
  </outline>
</glyph>
<glyph name="U" format="1">
  <advance width="579"/>
  <unicode hex="0055"/>
  <outline>
    <contour>
      <point x="553" y="252" type="curve" smooth="yes"/>
      <point x="553" y="595" type="line"/>
      <point x="361" y="595" type="line"/>
      <point x="361" y="232" type="line" smooth="yes"/>
      <point x="361" y="164"/>
      <point x="333" y="146"/>
      <point x="292" y="146" type="curve" smooth="yes"/>
      <point x="252" y="146"/>
      <point x="222" y="164"/>
      <point x="222" y="232" type="curve" smooth="yes"/>
      <point x="222" y="595" type="line"/>
      <point x="27" y="595" type="line"/>
      <point x="27" y="252" type="line" smooth="yes"/>
      <point x="27" y="65"/>
      <point x="117" y="-8"/>
      <point x="292" y="-8" type="curve" smooth="yes"/>
      <point x="465" y="-8"/>
      <point x="553" y="65"/>
    </contour>
    <contour>
      <point x="411" y="0" type="move" name="ogonek"/>
    </contour>
    <contour>
      <point x="292" y="611" type="move" name="top"/>
    </contour>
    <contour>
      <point x="396" y="595" type="move" name="topright"/>
    </contour>
    <contour>
      <point x="292" y="0" type="move" name="bottom"/>
    </contour>
  </outline>
</glyph>
<glyph name="V" format="1">
  <advance width="562"/>
  <unicode hex="0056"/>
  <outline>
    <contour>
      <point x="431" y="0" type="line"/>
      <point x="572" y="595" type="line"/>
      <point x="387" y="595" type="line"/>
      <point x="267" y="70" type="line"/>
      <point x="305" y="70" type="line"/>
      <point x="190" y="595" type="line"/>
      <point x="-10" y="595" type="line"/>
      <point x="131" y="0" type="line"/>
    </contour>
  </outline>
</glyph>
<glyph name="W" format="1">
  <advance width="887"/>
  <unicode hex="0057"/>
  <outline>
    <contour>
      <point x="373" y="0" type="line"/>
      <point x="475" y="463" type="line"/>
      <point x="425" y="463" type="line"/>
      <point x="515" y="0" type="line"/>
      <point x="767" y="0" type="line"/>
      <point x="890" y="595" type="line"/>
      <point x="709" y="595" type="line"/>
      <point x="604" y="64" type="line"/>
      <point x="657" y="64" type="line"/>
      <point x="555" y="595" type="line"/>
      <point x="346" y="595" type="line"/>
      <point x="234" y="64" type="line"/>
      <point x="291" y="64" type="line"/>
      <point x="193" y="595" type="line"/>
      <point x="-3" y="595" type="line"/>
      <point x="121" y="0" type="line"/>
    </contour>
    <contour>
      <point x="444" y="611" type="move" name="top"/>
    </contour>
    <contour>
      <point x="444" y="0" type="move" name="bottom"/>
    </contour>
  </outline>
</glyph>
<glyph name="X" format="1">
  <advance width="569"/>
  <unicode hex="0058"/>
  <outline>
    <contour>
      <point x="593" y="0" type="line"/>
      <point x="397" y="315" type="line"/>
      <point x="284" y="465" type="line"/>
      <point x="206" y="595" type="line"/>
      <point x="-7" y="595" type="line"/>
      <point x="171" y="314" type="line"/>
      <point x="284" y="168" type="line"/>
      <point x="384" y="0" type="line"/>
    </contour>
    <contour>
      <point x="183" y="0" type="line"/>
      <point x="284" y="168" type="line"/>
      <point x="397" y="315" type="line"/>
      <point x="571" y="595" type="line"/>
      <point x="362" y="595" type="line"/>
      <point x="284" y="465" type="line"/>
      <point x="171" y="314" type="line"/>
      <point x="-29" y="0" type="line"/>
    </contour>
  </outline>
</glyph>
<glyph name="Y" format="1">
  <advance width="524"/>
  <unicode hex="0059"/>
  <outline>
    <contour>
      <point x="360" y="0" type="line"/>
      <point x="360" y="315" type="line"/>
      <point x="320" y="169" type="line"/>
      <point x="557" y="595" type="line"/>
      <point x="370" y="595" type="line"/>
      <point x="244" y="362" type="line"/>
      <point x="293" y="362" type="line"/>
      <point x="168" y="595" type="line"/>
      <point x="-35" y="595" type="line"/>
      <point x="205" y="169" type="line"/>
      <point x="165" y="318" type="line"/>
      <point x="165" y="0" type="line"/>
    </contour>
    <contour>
      <point x="-25" y="595" type="move" name="topleft"/>
    </contour>
    <contour>
      <point x="264" y="611" type="move" name="top"/>
    </contour>
    <contour>
      <point x="263" y="0" type="move" name="bottom"/>
    </contour>
  </outline>
</glyph>
<glyph name="Z" format="1">
  <advance width="489"/>
  <unicode hex="005A"/>
  <outline>
    <contour>
      <point x="477" y="0" type="line"/>
      <point x="477" y="163" type="line"/>
      <point x="248" y="163" type="line"/>
      <point x="246" y="133" type="line"/>
      <point x="473" y="491" type="line"/>
      <point x="473" y="595" type="line"/>
      <point x="16" y="595" type="line"/>
      <point x="16" y="432" type="line"/>
      <point x="237" y="432" type="line"/>
      <point x="238" y="462" type="line"/>
      <point x="12" y="104" type="line"/>
      <point x="12" y="0" type="line"/>
    </contour>
    <contour>
      <point x="245" y="611" type="move" name="top"/>
    </contour>
    <contour>
      <point x="241" y="0" type="move" name="bottom"/>
    </contour>
  </outline>
</glyph>
<glyph name="a" format="1">
  <advance width="442"/>
  <unicode hex="0061"/>
  <outline>
    <contour>
      <point x="239" y="44" type="curve"/>
      <point x="247" y="44" type="line"/>
      <point x="260" y="0" type="line"/>
      <point x="415" y="0" type="line"/>
      <point x="415" y="251" type="line" smooth="yes"/>
      <point x="415" y="399"/>
      <point x="352" y="451"/>
      <point x="196" y="451" type="curve" smooth="yes"/>
      <point x="148" y="451"/>
      <point x="91" y="446"/>
      <point x="46" y="437" type="curve"/>
      <point x="46" y="294" type="line"/>
      <point x="81" y="303"/>
      <point x="122" y="308"/>
      <point x="156" y="308" type="curve" smooth="yes"/>
      <point x="217" y="308"/>
      <point x="229" y="293"/>
      <point x="229" y="259" type="curve" smooth="yes"/>
      <point x="229" y="121" type="line"/>
      <point x="224" y="124"/>
      <point x="220" y="124"/>
      <point x="215" y="124" type="curve" smooth="yes"/>
      <point x="202" y="124"/>
      <point x="192" y="133"/>
      <point x="192" y="149" type="curve" smooth="yes"/>
      <point x="192" y="168"/>
      <point x="204" y="180"/>
      <point x="226" y="181" type="curve" smooth="yes"/>
      <point x="272" y="182" type="line"/>
      <point x="246" y="278" type="line"/>
      <point x="202" y="276" type="line" smooth="yes"/>
      <point x="60" y="269"/>
      <point x="6" y="217"/>
      <point x="6" y="126" type="curve" smooth="yes"/>
      <point x="6" y="47"/>
      <point x="62" y="-9"/>
      <point x="143" y="-9" type="curve" smooth="yes"/>
      <point x="185" y="-9"/>
      <point x="221" y="4"/>
    </contour>
    <contour>
      <point x="219" y="482" type="move" name="top"/>
    </contour>
    <contour>
      <point x="415" y="0" type="move" name="ogonek"/>
    </contour>
    <contour>
      <point x="219" y="0" type="move" name="bottom"/>
    </contour>
  </outline>
</glyph>
<glyph name="o" format="1">
  <advance width="469"/>
  <unicode hex="006F"/>
  <outline>
    <contour>
      <point x="456" y="220" type="curve" smooth="yes"/>
      <point x="456" y="370"/>
      <point x="378" y="451"/>
      <point x="235" y="451" type="curve" smooth="yes"/>
      <point x="92" y="451"/>
      <point x="13" y="375"/>
      <point x="13" y="218" type="curve" smooth="yes"/>
      <point x="13" y="66"/>
      <point x="92" y="-9"/>
      <point x="235" y="-9" type="curve" smooth="yes"/>
      <point x="377" y="-9"/>
      <point x="456" y="66"/>
    </contour>
    <contour>
      <point x="209" y="220" type="curve" smooth="yes"/>
      <point x="209" y="307"/>
      <point x="217" y="319"/>
      <point x="235" y="319" type="curve" smooth="yes"/>
      <point x="252" y="319"/>
      <point x="261" y="307"/>
      <point x="261" y="218" type="curve" smooth="yes"/>
      <point x="261" y="133"/>
      <point x="254" y="123"/>
      <point x="235" y="123" type="curve" smooth="yes"/>
      <point x="215" y="123"/>
      <point x="209" y="133"/>
    </contour>
    <contour>
      <point x="235" y="222" type="move" name="center"/>
    </contour>
    <contour>
      <point x="312" y="0" type="move" name="ogonek"/>
    </contour>
    <contour>
      <point x="235" y="482" type="move" name="top"/>
    </contour>
    <contour>
      <point x="225" y="444" type="move" name="topright"/>
    </contour>
    <contour>
      <point x="235" y="0" type="move" name="bottom"/>
    </contour>
  </outline>
</glyph>
<glyph name="AE" format="1">
  <advance width="812"/>
  <unicode hex="00C6"/>
  <outline>
    <contour>
      <point x="185" y="0" type="line"/>
      <point x="277" y="436" type="line"/>
      <point x="428" y="436" type="line"/>
      <point x="428" y="595" type="line"/>
      <point x="137" y="595" type="line"/>
      <point x="-6" y="0" type="line"/>
    </contour>
    <contour>
      <point x="421" y="123" type="line"/>
      <point x="421" y="278" type="line"/>
      <point x="140" y="278" type="line"/>
      <point x="105" y="123" type="line"/>
    </contour>
    <contour>
      <point x="785" y="0" type="line"/>
      <point x="785" y="159" type="line"/>
      <point x="562" y="159" type="line"/>
      <point x="531" y="436" type="line"/>
      <point x="781" y="436" type="line"/>
      <point x="781" y="595" type="line"/>
      <point x="336" y="595" type="line"/>
      <point x="386" y="0" type="line"/>
    </contour>
    <contour>
      <point x="735" y="225" type="line"/>
      <point x="735" y="381" type="line"/>
      <point x="481" y="381" type="line"/>
      <point x="481" y="225" type="line"/>
    </contour>
    <contour>
      <point x="421" y="611" type="move" name="top"/>
    </contour>
    <contour>
      <point x="416" y="0" type="move" name="bottom"/>
    </contour>
  </outline>
</glyph>
<glyph name="Thorn" format="1">
  <advance width="538"/>
  <unicode hex="00DE"/>
  <outline>
    <contour>
      <point x="226" y="0" type="line"/>
      <point x="226" y="78" type="line"/>
      <point x="239" y="79"/>
      <point x="246" y="78"/>
      <point x="261" y="78" type="curve" smooth="yes"/>
      <point x="423" y="78"/>
      <point x="518" y="154"/>
      <point x="518" y="306" type="curve" smooth="yes"/>
      <point x="518" y="464"/>
      <point x="422" y="534"/>
      <point x="235" y="534" type="curve" smooth="yes"/>
      <point x="234" y="534"/>
      <point x="230" y="534"/>
      <point x="226" y="534" type="curve"/>
      <point x="226" y="595" type="line"/>
      <point x="31" y="595" type="line"/>
      <point x="31" y="0" type="line"/>
    </contour>
    <contour>
      <point x="226" y="227" type="curve"/>
      <point x="226" y="384" type="line"/>
      <point x="233" y="386"/>
      <point x="239" y="387"/>
      <point x="253" y="387" type="curve" smooth="yes"/>
      <point x="305" y="387"/>
      <point x="330" y="362"/>
      <point x="330" y="304" type="curve" smooth="yes"/>
      <point x="330" y="244"/>
      <point x="306" y="225"/>
      <point x="261" y="225" type="curve" smooth="yes"/>
      <point x="246" y="225"/>
      <point x="236" y="226"/>
    </contour>
  </outline>
</glyph>
<glyph name="Hbar" format="1">
  <advance width="596"/>
  <unicode hex="0126"/>
  <outline>
    <contour>
      <point x="226" y="0" type="line"/>
      <point x="226" y="219" type="line"/>
      <point x="370" y="219" type="line"/>
      <point x="370" y="0" type="line"/>
      <point x="565" y="0" type="line"/>
      <point x="565" y="595" type="line"/>
      <point x="370" y="595" type="line"/>
      <point x="370" y="387" type="line"/>
      <point x="226" y="387" type="line"/>
      <point x="226" y="595" type="line"/>
      <point x="31" y="595" type="line"/>
      <point x="31" y="0" type="line"/>
    </contour>
    <contour>
      <point x="596" y="431" type="line"/>
      <point x="596" y="543" type="line"/>
      <point x="1" y="543" type="line"/>
      <point x="1" y="431" type="line"/>
    </contour>
    <contour>
      <point x="298" y="487" type="move" name="center"/>
    </contour>
    <contour>
      <point x="298" y="611" type="move" name="top"/>
    </contour>
    <contour>
      <point x="11" y="595" type="move" name="topleft"/>
    </contour>
    <contour>
      <point x="298" y="0" type="move" name="bottom"/>
    </contour>
  </outline>
</glyph>
<glyph name="Lslash" format="1">
  <advance width="474"/>
  <unicode hex="0141"/>
  <outline>
    <contour>
      <point x="401" y="382" type="line"/>
      <point x="344" y="495" type="line"/>
      <point x="-21" y="349" type="line"/>
      <point x="37" y="237" type="line"/>
    </contour>
    <contour>
      <point x="472" y="0" type="line"/>
      <point x="472" y="163" type="line"/>
      <point x="245" y="163" type="line"/>
      <point x="245" y="595" type="line"/>
      <point x="50" y="595" type="line"/>
      <point x="50" y="0" type="line"/>
    </contour>
    <contour>
      <point x="316" y="595" type="move" name="caronalt"/>
    </contour>
    <contour>
      <point x="152" y="611" type="move" name="top"/>
    </contour>
    <contour>
      <point x="373" y="370" type="move" name="periodcentered"/>
    </contour>
    <contour>
      <point x="152" y="350" type="move" name="_slash"/>
    </contour>
    <contour>
      <point x="152" y="350" type="move" name="slash"/>
    </contour>
    <contour>
      <point x="261" y="0" type="move" name="bottom"/>
    </contour>
  </outline>
</glyph>
<glyph name="OE" format="1">
  <advance width="814"/>
  <unicode hex="0152"/>
  <outline>
    <contour>
      <point x="482" y="0" type="curve" smooth="yes"/>
      <point x="787" y="0" type="line"/>
      <point x="787" y="159" type="line"/>
      <point x="550" y="159" type="line"/>
      <point x="550" y="436" type="line"/>
      <point x="782" y="436" type="line"/>
      <point x="782" y="595" type="line"/>
      <point x="482" y="595" type="line" smooth="yes"/>
      <point x="443" y="595"/>
      <point x="399" y="599"/>
      <point x="361" y="599" type="curve" smooth="yes"/>
      <point x="151" y="599"/>
      <point x="19" y="506"/>
      <point x="19" y="297" type="curve" smooth="yes"/>
      <point x="19" y="94"/>
      <point x="131" y="-4"/>
      <point x="349" y="-4" type="curve" smooth="yes"/>
      <point x="387" y="-4"/>
      <point x="443" y="0"/>
    </contour>
    <contour>
      <point x="218" y="297" type="curve" smooth="yes"/>
      <point x="218" y="415"/>
      <point x="260" y="446"/>
      <point x="323" y="446" type="curve" smooth="yes"/>
      <point x="329" y="446"/>
      <point x="341" y="446"/>
      <point x="358" y="446" type="curve"/>
      <point x="358" y="148" type="line"/>
      <point x="340" y="148"/>
      <point x="330" y="148"/>
      <point x="321" y="148" type="curve" smooth="yes"/>
      <point x="258" y="148"/>
      <point x="218" y="180"/>
    </contour>
    <contour>
      <point x="737" y="225" type="line"/>
      <point x="737" y="381" type="line"/>
      <point x="495" y="381" type="line"/>
      <point x="495" y="225" type="line"/>
    </contour>
    <contour>
      <point x="454" y="611" type="move" name="top"/>
    </contour>
    <contour>
      <point x="454" y="0" type="move" name="bottom"/>
    </contour>
  </outline>
</glyph>
<glyph name="Ohorn" format="1">
  <advance width="616"/>
  <unicode hex="01A0"/>
  <outline>
    <contour>
      <point x="597" y="297" type="curve" smooth="yes"/>
      <point x="597" y="422"/>
      <point x="555" y="506"/>
      <point x="487" y="553" type="curve"/>
      <point x="457" y="515" type="line"/>
      <point x="544" y="515"/>
      <point x="607" y="547"/>
      <point x="607" y="646" type="curve" smooth="yes"/>
      <point x="607" y="670"/>
      <point x="605" y="694"/>
      <point x="599" y="714" type="curve"/>
      <point x="468" y="714" type="line"/>
      <point x="473" y="693"/>
      <point x="474" y="674"/>
      <point x="474" y="658" type="curve" smooth="yes"/>
      <point x="474" y="610"/>
      <point x="454" y="595"/>
      <point x="415" y="595" type="curve" smooth="yes"/>
      <point x="378" y="595"/>
      <point x="353" y="603"/>
      <point x="308" y="603" type="curve" smooth="yes"/>
      <point x="139" y="603"/>
      <point x="19" y="511"/>
      <point x="19" y="297" type="curve" smooth="yes"/>
      <point x="19" y="84"/>
      <point x="135" y="-8"/>
      <point x="308" y="-8" type="curve" smooth="yes"/>
      <point x="481" y="-8"/>
      <point x="597" y="84"/>
    </contour>
    <contour>
      <point x="218" y="301" type="curve" smooth="yes"/>
      <point x="218" y="411"/>
      <point x="248" y="451"/>
      <point x="308" y="451" type="curve" smooth="yes"/>
      <point x="368" y="451"/>
      <point x="398" y="411"/>
      <point x="398" y="294" type="curve" smooth="yes"/>
      <point x="398" y="184"/>
      <point x="368" y="144"/>
      <point x="308" y="144" type="curve" smooth="yes"/>
      <point x="248" y="144"/>
      <point x="218" y="184"/>
    </contour>
    <contour>
      <point x="308" y="611" type="move" name="top"/>
    </contour>
    <contour>
      <point x="308" y="0" type="move" name="bottom"/>
    </contour>
  </outline>
</glyph>
<glyph name="Uhorn" format="1">
  <advance width="584"/>
  <unicode hex="01AF"/>
  <outline>
    <contour>
      <point x="611" y="714" type="curve"/>
      <point x="481" y="714" type="line"/>
      <point x="486" y="693"/>
      <point x="487" y="674"/>
      <point x="487" y="658" type="curve" smooth="yes"/>
      <point x="487" y="610"/>
      <point x="467" y="595"/>
      <point x="427" y="595" type="curve" smooth="yes"/>
      <point x="361" y="595" type="line"/>
      <point x="361" y="232" type="line" smooth="yes"/>
      <point x="361" y="164"/>
      <point x="333" y="146"/>
      <point x="292" y="146" type="curve" smooth="yes"/>
      <point x="252" y="146"/>
      <point x="222" y="164"/>
      <point x="222" y="232" type="curve" smooth="yes"/>
      <point x="222" y="595" type="line"/>
      <point x="27" y="595" type="line"/>
      <point x="27" y="252" type="line" smooth="yes"/>
      <point x="27" y="65"/>
      <point x="117" y="-8"/>
      <point x="292" y="-8" type="curve" smooth="yes"/>
      <point x="465" y="-8"/>
      <point x="553" y="65"/>
      <point x="553" y="252" type="curve" smooth="yes"/>
      <point x="553" y="528" type="line"/>
      <point x="595" y="546"/>
      <point x="620" y="583"/>
      <point x="620" y="646" type="curve" smooth="yes"/>
      <point x="620" y="670"/>
      <point x="618" y="694"/>
    </contour>
    <contour>
      <point x="290" y="611" type="move" name="top"/>
    </contour>
    <contour>
      <point x="290" y="0" type="move" name="bottom"/>
    </contour>
  </outline>
</glyph>
<glyph name="Germandbls" format="1">
  <advance width="731"/>
  <outline>
    <contour>
      <point x="727" y="190" type="curve" smooth="yes"/>
      <point x="727" y="289"/>
      <point x="667" y="339"/>
      <point x="570" y="371" type="curve" smooth="yes"/>
      <point x="498" y="394"/>
      <point x="486" y="402"/>
      <point x="486" y="418" type="curve" smooth="yes"/>
      <point x="486" y="433"/>
      <point x="501" y="451"/>
      <point x="582" y="451" type="curve" smooth="yes"/>
      <point x="614" y="451"/>
      <point x="659" y="446"/>
      <point x="691" y="439" type="curve"/>
      <point x="691" y="590" type="line"/>
      <point x="655" y="597"/>
      <point x="609" y="603"/>
      <point x="563" y="603" type="curve" smooth="yes"/>
      <point x="377" y="603"/>
      <point x="292" y="527"/>
      <point x="292" y="404" type="curve" smooth="yes"/>
      <point x="292" y="309"/>
      <point x="354" y="249"/>
      <point x="437" y="225" type="curve" smooth="yes"/>
      <point x="518" y="202"/>
      <point x="533" y="191"/>
      <point x="533" y="173" type="curve" smooth="yes"/>
      <point x="533" y="157"/>
      <point x="517" y="144"/>
      <point x="465" y="144" type="curve" smooth="yes"/>
      <point x="415" y="144"/>
      <point x="359" y="154"/>
      <point x="313" y="167" type="curve"/>
      <point x="313" y="16" type="line"/>
      <point x="359" y="1"/>
      <point x="425" y="-8"/>
      <point x="472" y="-8" type="curve" smooth="yes"/>
      <point x="635" y="-8"/>
      <point x="727" y="70"/>
    </contour>
    <contour>
      <point x="226" y="0" type="line"/>
      <point x="226" y="405" type="line" smooth="yes"/>
      <point x="226" y="438"/>
      <point x="246" y="452"/>
      <point x="271" y="452" type="curve" smooth="yes"/>
      <point x="289" y="452"/>
      <point x="303" y="446"/>
      <point x="316" y="433" type="curve"/>
      <point x="433" y="565" type="line"/>
      <point x="397" y="588"/>
      <point x="342" y="603"/>
      <point x="271" y="603" type="curve" smooth="yes"/>
      <point x="113" y="603"/>
      <point x="31" y="521"/>
      <point x="31" y="382" type="curve" smooth="yes"/>
      <point x="31" y="0" type="line"/>
    </contour>
  </outline>
</glyph>
<glyph name="Schwa" format="1">
  <advance width="602"/>
  <outline>
    <contour>
      <point x="583" y="288" type="curve" smooth="yes"/>
      <point x="583" y="498"/>
      <point x="467" y="603"/>
      <point x="231" y="603" type="curve" smooth="yes"/>
      <point x="177" y="603"/>
      <point x="108" y="597"/>
      <point x="56" y="586" type="curve"/>
      <point x="56" y="435" type="line"/>
      <point x="102" y="446"/>
      <point x="161" y="453"/>
      <point x="211" y="453" type="curve" smooth="yes"/>
      <point x="340" y="453"/>
      <point x="389" y="414"/>
      <point x="389" y="284" type="curve" smooth="yes"/>
      <point x="389" y="170"/>
      <point x="368" y="140"/>
      <point x="305" y="140" type="curve" smooth="yes"/>
      <point x="236" y="140"/>
      <point x="216" y="176"/>
      <point x="216" y="284" type="curve"/>
      <point x="138" y="214" type="line"/>
      <point x="458" y="214" type="line"/>
      <point x="458" y="352" type="line"/>
      <point x="15" y="352" type="line"/>
      <point x="15" y="288" type="line" smooth="yes"/>
      <point x="15" y="81"/>
      <point x="142" y="-8"/>
      <point x="304" y="-8" type="curve" smooth="yes"/>
      <point x="459" y="-8"/>
      <point x="583" y="91"/>
    </contour>
    <contour>
      <point x="306" y="592" type="move" name="top"/>
    </contour>
    <contour>
      <point x="306" y="0" type="move" name="bottom"/>
    </contour>
  </outline>
</glyph>
<glyph name="eight.tf" format="1">
  <advance width="529"/>
  <outline>
    <contour>
      <point x="509" y="170" type="curve" smooth="yes"/>
      <point x="509" y="259"/>
      <point x="467" y="313"/>
      <point x="320" y="364" type="curve" smooth="yes"/>
      <point x="228" y="397"/>
      <point x="216" y="409"/>
      <point x="216" y="435" type="curve" smooth="yes"/>
      <point x="216" y="457"/>
      <point x="237" y="473"/>
      <point x="275" y="473" type="curve" smooth="yes"/>
      <point x="310" y="473"/>
      <point x="330" y="460"/>
      <point x="330" y="434" type="curve" smooth="yes"/>
      <point x="330" y="406"/>
      <point x="313" y="382"/>
      <point x="283" y="357" type="curve"/>
      <point x="394" y="306" type="line"/>
      <point x="473" y="346"/>
      <point x="495" y="399"/>
      <point x="495" y="449" type="curve" smooth="yes"/>
      <point x="495" y="544"/>
      <point x="409" y="603"/>
      <point x="273" y="603" type="curve" smooth="yes"/>
      <point x="119" y="603"/>
      <point x="33" y="535"/>
      <point x="33" y="430" type="curve" smooth="yes"/>
      <point x="33" y="345"/>
      <point x="79" y="279"/>
      <point x="226" y="232" type="curve" smooth="yes"/>
      <point x="308" y="206"/>
      <point x="327" y="189"/>
      <point x="327" y="162" type="curve" smooth="yes"/>
      <point x="327" y="137"/>
      <point x="309" y="121"/>
      <point x="265" y="121" type="curve" smooth="yes"/>
      <point x="222" y="121"/>
      <point x="200" y="139"/>
      <point x="200" y="170" type="curve" smooth="yes"/>
      <point x="200" y="192"/>
      <point x="216" y="227"/>
      <point x="256" y="243" type="curve"/>
      <point x="139" y="294" type="line"/>
      <point x="58" y="262"/>
      <point x="20" y="212"/>
      <point x="20" y="153" type="curve" smooth="yes"/>
      <point x="20" y="62"/>
      <point x="101" y="-8"/>
      <point x="265" y="-8" type="curve" smooth="yes"/>
      <point x="418" y="-8"/>
      <point x="509" y="65"/>
    </contour>
  </outline>
</glyph>
<glyph name="five.tf" format="1">
  <advance width="529"/>
  <outline>
    <contour>
      <point x="483" y="188" type="curve" smooth="yes"/>
      <point x="483" y="308"/>
      <point x="406" y="366"/>
      <point x="223" y="378" type="curve" smooth="yes"/>
      <point x="174" y="381" type="line"/>
      <point x="257" y="320" type="line"/>
      <point x="270" y="530" type="line"/>
      <point x="188" y="444" type="line"/>
      <point x="461" y="444" type="line"/>
      <point x="461" y="595" type="line"/>
      <point x="91" y="595" type="line"/>
      <point x="71" y="241" type="line"/>
      <point x="118" y="238" type="line" smooth="yes"/>
      <point x="272" y="227"/>
      <point x="298" y="212"/>
      <point x="298" y="181" type="curve" smooth="yes"/>
      <point x="298" y="149"/>
      <point x="270" y="135"/>
      <point x="201" y="135" type="curve" smooth="yes"/>
      <point x="161" y="135"/>
      <point x="100" y="141"/>
      <point x="56" y="152" type="curve"/>
      <point x="56" y="10" type="line"/>
      <point x="104" y="-2"/>
      <point x="155" y="-8"/>
      <point x="206" y="-8" type="curve" smooth="yes"/>
      <point x="380" y="-8"/>
      <point x="483" y="55"/>
    </contour>
  </outline>
</glyph>
<glyph name="four.tf" format="1">
  <advance width="529"/>
  <outline>
    <contour>
      <point x="516" y="107" type="line"/>
      <point x="516" y="247" type="line"/>
      <point x="180" y="247" type="line"/>
      <point x="206" y="211" type="line"/>
      <point x="375" y="595" type="line"/>
      <point x="192" y="595" type="line"/>
      <point x="15" y="210" type="line"/>
      <point x="15" y="107" type="line"/>
    </contour>
    <contour>
      <point x="451" y="0" type="line"/>
      <point x="451" y="394" type="line"/>
      <point x="299" y="394" type="line"/>
      <point x="280" y="247" type="line"/>
      <point x="280" y="0" type="line"/>
    </contour>
  </outline>
</glyph>
<glyph name="nine.tf" format="1">
  <advance width="529"/>
  <outline>
    <contour>
      <point x="22" y="404" type="curve" smooth="yes"/>
      <point x="22" y="275"/>
      <point x="113" y="221"/>
      <point x="212" y="221" type="curve" smooth="yes"/>
      <point x="261" y="221"/>
      <point x="311" y="238"/>
      <point x="337" y="272" type="curve"/>
      <point x="337" y="400" type="line"/>
      <point x="314" y="370"/>
      <point x="283" y="358"/>
      <point x="252" y="358" type="curve" smooth="yes"/>
      <point x="219" y="358"/>
      <point x="198" y="375"/>
      <point x="198" y="410" type="curve" smooth="yes"/>
      <point x="198" y="448"/>
      <point x="220" y="465"/>
      <point x="248" y="465" type="curve" smooth="yes"/>
      <point x="284" y="465"/>
      <point x="305" y="445"/>
      <point x="305" y="348" type="curve" smooth="yes"/>
      <point x="305" y="268" type="line" smooth="yes"/>
      <point x="305" y="179"/>
      <point x="261" y="139"/>
      <point x="168" y="139" type="curve" smooth="yes"/>
      <point x="123" y="139"/>
      <point x="93" y="143"/>
      <point x="55" y="152" type="curve"/>
      <point x="55" y="6" type="line"/>
      <point x="86" y="-4"/>
      <point x="130" y="-8"/>
      <point x="175" y="-8" type="curve" smooth="yes"/>
      <point x="369" y="-8"/>
      <point x="496" y="92"/>
      <point x="496" y="312" type="curve" smooth="yes"/>
      <point x="496" y="520"/>
      <point x="397" y="603"/>
      <point x="250" y="603" type="curve" smooth="yes"/>
      <point x="114" y="603"/>
      <point x="22" y="528"/>
    </contour>
  </outline>
</glyph>
<glyph name="one.tf" format="1">
  <advance width="529"/>
  <outline>
    <contour>
      <point x="382" y="0" type="line"/>
      <point x="382" y="598" type="line"/>
      <point x="262" y="598" type="line"/>
      <point x="89" y="502" type="line"/>
      <point x="89" y="332" type="line"/>
      <point x="262" y="428" type="line"/>
      <point x="187" y="486" type="line"/>
      <point x="187" y="0" type="line"/>
    </contour>
    <contour>
      <point x="484" y="0" type="line"/>
      <point x="484" y="161" type="line"/>
      <point x="80" y="161" type="line"/>
      <point x="80" y="0" type="line"/>
    </contour>
  </outline>
</glyph>
<glyph name="seven.tf" format="1">
  <advance width="529"/>
  <outline>
    <contour>
      <point x="293" y="0" type="line"/>
      <point x="462" y="491" type="line"/>
      <point x="462" y="595" type="line"/>
      <point x="47" y="595" type="line"/>
      <point x="47" y="434" type="line"/>
      <point x="342" y="434" type="line"/>
      <point x="270" y="491" type="line"/>
      <point x="91" y="0" type="line"/>
    </contour>
  </outline>
</glyph>
<glyph name="six.tf" format="1">
  <advance width="529"/>
  <outline>
    <contour>
      <point x="507" y="191" type="curve" smooth="yes"/>
      <point x="507" y="320"/>
      <point x="416" y="374"/>
      <point x="318" y="374" type="curve" smooth="yes"/>
      <point x="268" y="374"/>
      <point x="219" y="357"/>
      <point x="193" y="323" type="curve"/>
      <point x="193" y="195" type="line"/>
      <point x="215" y="225"/>
      <point x="246" y="237"/>
      <point x="277" y="237" type="curve" smooth="yes"/>
      <point x="310" y="237"/>
      <point x="332" y="220"/>
      <point x="332" y="185" type="curve" smooth="yes"/>
      <point x="332" y="147"/>
      <point x="309" y="130"/>
      <point x="282" y="130" type="curve" smooth="yes"/>
      <point x="245" y="130"/>
      <point x="224" y="150"/>
      <point x="224" y="247" type="curve" smooth="yes"/>
      <point x="224" y="327" type="line" smooth="yes"/>
      <point x="224" y="416"/>
      <point x="268" y="456"/>
      <point x="361" y="456" type="curve" smooth="yes"/>
      <point x="406" y="456"/>
      <point x="437" y="452"/>
      <point x="474" y="443" type="curve"/>
      <point x="474" y="589" type="line"/>
      <point x="444" y="599"/>
      <point x="399" y="603"/>
      <point x="355" y="603" type="curve" smooth="yes"/>
      <point x="160" y="603"/>
      <point x="33" y="503"/>
      <point x="33" y="283" type="curve" smooth="yes"/>
      <point x="33" y="75"/>
      <point x="133" y="-8"/>
      <point x="280" y="-8" type="curve" smooth="yes"/>
      <point x="416" y="-8"/>
      <point x="507" y="67"/>
    </contour>
  </outline>
</glyph>
<glyph name="slashcomb.case" format="1">
  <advance width="605"/>
  <outline>
    <contour>
      <point x="513" y="571" type="line"/>
      <point x="430" y="624" type="line"/>
      <point x="-1" y="24" type="line"/>
      <point x="82" y="-29" type="line"/>
    </contour>
    <contour>
      <point x="256" y="297" type="move" name="_center"/>
    </contour>
  </outline>
</glyph>
<glyph name="slashcomb" format="1">
  <advance width="512"/>
  <outline>
    <contour>
      <point x="177" y="26" type="line"/>
      <point x="213" y="99" type="line"/>
      <point x="362" y="310" type="line"/>
      <point x="417" y="365" type="line"/>
      <point x="455" y="420" type="line"/>
      <point x="374" y="473" type="line"/>
      <point x="335" y="418" type="line"/>
      <point x="299" y="345" type="line"/>
      <point x="150" y="134" type="line"/>
      <point x="96" y="79" type="line"/>
      <point x="57" y="24" type="line"/>
      <point x="139" y="-29" type="line"/>
    </contour>
    <contour>
      <point x="256" y="222" type="move" name="_center"/>
    </contour>
  </outline>
</glyph>
<glyph name="slashshortcomb.case" format="1">
  <advance width="403"/>
  <outline>
    <contour>
      <point x="420" y="343" type="line"/>
      <point x="363" y="456" type="line"/>
      <point x="-2" y="310" type="line"/>
      <point x="56" y="198" type="line"/>
    </contour>
    <contour>
      <point x="171" y="311" type="move" name="_slash"/>
    </contour>
  </outline>
</glyph>
<glyph name="slashshortcomb" format="1">
  <advance width="342"/>
  <outline>
    <contour>
      <point x="344" y="318" type="line"/>
      <point x="291" y="423" type="line"/>
      <point x="-2" y="304" type="line"/>
      <point x="51" y="199" type="line"/>
    </contour>
    <contour>
      <point x="171" y="311" type="move" name="_slash"/>
    </contour>
  </outline>
</glyph>
<glyph name="strokelongcomb.case" format="1">
  <advance width="596"/>
  <outline>
    <contour>
      <point x="597" y="417" type="line"/>
      <point x="597" y="529" type="line"/>
      <point x="2" y="529" type="line"/>
      <point x="2" y="417" type="line"/>
    </contour>
    <contour>
      <point x="300" y="473" type="move" name="_center"/>
    </contour>
  </outline>
</glyph>
<glyph name="strokeshortcomb.D" format="1">
  <advance width="512"/>
  <outline>
    <contour>
      <point x="403" y="383" type="line"/>
      <point x="403" y="505" type="line"/>
      <point x="102" y="505" type="line"/>
      <point x="102" y="383" type="line"/>
    </contour>
    <contour>
      <point x="133" y="444" type="move" name="_stroke"/>
    </contour>
  </outline>
</glyph>
<glyph name="strokeshortcomb.case" format="1">
  <advance width="506"/>
  <outline>
    <contour>
      <point x="440" y="373" type="line"/>
      <point x="440" y="495" type="line"/>
      <point x="45" y="495" type="line"/>
      <point x="45" y="373" type="line"/>
    </contour>
    <contour>
      <point x="243" y="434" type="move" name="_center"/>
    </contour>
  </outline>
</glyph>
<glyph name="strokeshortcomb.d" format="1">
  <advance width="512"/>
  <outline>
    <contour>
      <point x="284" y="383" type="line"/>
      <point x="284" y="505" type="line"/>
      <point x="-28" y="505" type="line"/>
      <point x="-28" y="383" type="line"/>
    </contour>
    <contour>
      <point x="256" y="444" type="move" name="_stroke"/>
    </contour>
  </outline>
</glyph>
<glyph name="strokeshortcomb.h" format="1">
  <advance width="512"/>
  <outline>
    <contour>
      <point x="540" y="383" type="line"/>
      <point x="540" y="505" type="line"/>
      <point x="228" y="505" type="line"/>
      <point x="228" y="383" type="line"/>
    </contour>
    <contour>
      <point x="256" y="444" type="move" name="_stroke"/>
    </contour>
  </outline>
</glyph>
<glyph name="strokeshortcomb.t" format="1">
  <advance width="512"/>
  <outline>
    <contour>
      <point x="523" y="383" type="line"/>
      <point x="523" y="505" type="line"/>
      <point x="218" y="505" type="line"/>
      <point x="218" y="383" type="line"/>
    </contour>
    <contour>
      <point x="256" y="444" type="move" name="_stroke"/>
    </contour>
  </outline>
</glyph>
<glyph name="three.tf" format="1">
  <advance width="529"/>
  <outline>
    <contour>
      <point x="478" y="169" type="curve" smooth="yes"/>
      <point x="478" y="244"/>
      <point x="436" y="294"/>
      <point x="349" y="308" type="curve"/>
      <point x="349" y="304" type="line"/>
      <point x="418" y="318"/>
      <point x="459" y="367"/>
      <point x="459" y="440" type="curve" smooth="yes"/>
      <point x="459" y="545"/>
      <point x="375" y="603"/>
      <point x="212" y="603" type="curve" smooth="yes"/>
      <point x="158" y="603"/>
      <point x="93" y="595"/>
      <point x="52" y="583" type="curve"/>
      <point x="52" y="441" type="line"/>
      <point x="88" y="453"/>
      <point x="139" y="460"/>
      <point x="182" y="460" type="curve" smooth="yes"/>
      <point x="249" y="460"/>
      <point x="274" y="447"/>
      <point x="274" y="417" type="curve" smooth="yes"/>
      <point x="274" y="391"/>
      <point x="253" y="377"/>
      <point x="187" y="377" type="curve" smooth="yes"/>
      <point x="98" y="377" type="line"/>
      <point x="98" y="229" type="line"/>
      <point x="187" y="229" type="line" smooth="yes"/>
      <point x="263" y="229"/>
      <point x="292" y="216"/>
      <point x="292" y="183" type="curve" smooth="yes"/>
      <point x="292" y="150"/>
      <point x="267" y="135"/>
      <point x="192" y="135" type="curve" smooth="yes"/>
      <point x="152" y="135"/>
      <point x="91" y="140"/>
      <point x="47" y="150" type="curve"/>
      <point x="47" y="8" type="line"/>
      <point x="95" y="-3"/>
      <point x="147" y="-8"/>
      <point x="197" y="-8" type="curve" smooth="yes"/>
      <point x="376" y="-8"/>
      <point x="478" y="56"/>
    </contour>
  </outline>
</glyph>
<glyph name="two.tf" format="1">
  <advance width="529"/>
  <outline>
    <contour>
      <point x="483" y="0" type="line"/>
      <point x="483" y="161" type="line"/>
      <point x="271" y="161" type="line"/>
      <point x="280" y="117" type="line"/>
      <point x="375" y="229" type="line" smooth="yes"/>
      <point x="432" y="299"/>
      <point x="455" y="361"/>
      <point x="455" y="414" type="curve" smooth="yes"/>
      <point x="455" y="550"/>
      <point x="357" y="603"/>
      <point x="198" y="603" type="curve" smooth="yes"/>
      <point x="150" y="603"/>
      <point x="84" y="595"/>
      <point x="45" y="583" type="curve"/>
      <point x="45" y="431" type="line"/>
      <point x="81" y="443"/>
      <point x="126" y="449"/>
      <point x="166" y="449" type="curve" smooth="yes"/>
      <point x="239" y="449"/>
      <point x="262" y="428"/>
      <point x="262" y="397" type="curve" smooth="yes"/>
      <point x="262" y="366"/>
      <point x="243" y="328"/>
      <point x="196" y="273" type="curve" smooth="yes"/>
      <point x="54" y="104" type="line"/>
      <point x="54" y="0" type="line"/>
    </contour>
  </outline>
</glyph>
<glyph name="zero.tf" format="1">
  <advance width="529"/>
  <outline>
    <contour>
      <point x="506" y="297" type="curve" smooth="yes"/>
      <point x="506" y="507"/>
      <point x="423" y="603"/>
      <point x="265" y="603" type="curve" smooth="yes"/>
      <point x="107" y="603"/>
      <point x="23" y="507"/>
      <point x="23" y="297" type="curve" smooth="yes"/>
      <point x="23" y="87"/>
      <point x="107" y="-8"/>
      <point x="265" y="-8" type="curve" smooth="yes"/>
      <point x="423" y="-8"/>
      <point x="506" y="87"/>
    </contour>
    <contour>
      <point x="213" y="297" type="curve" smooth="yes"/>
      <point x="213" y="419"/>
      <point x="226" y="451"/>
      <point x="265" y="451" type="curve" smooth="yes"/>
      <point x="305" y="451"/>
      <point x="316" y="419"/>
      <point x="316" y="298" type="curve" smooth="yes"/>
      <point x="316" y="176"/>
      <point x="305" y="144"/>
      <point x="265" y="144" type="curve" smooth="yes"/>
      <point x="226" y="144"/>
      <point x="213" y="176"/>
    </contour>
  </outline>
</glyph>
